<svg width="200" height="50" viewBox="0 0 654 120" fill="none" xmlns="http://www.w3.org/2000/svg">
<path fill-rule="evenodd" clip-rule="evenodd" d="M91.4062 0C108.75 0 120 11.25 120 28.5938V91.4062C120 108.75 108.75 120 91.4062 120H28.5938C11.25 120 0 108.75 0 91.4062V28.5938C0 11.25 11.25 0 28.5938 0H91.4062Z" fill="url(#paint0_linear_2_3)"/>
<path d="M46 28H81" stroke="white" stroke-width="14" stroke-linecap="round"/>
<path d="M46 28L46 91" stroke="white" stroke-width="14" stroke-linecap="round"/>
<path d="M46.5 67V73.5H53C55.2854 73.5 57.5794 73.2599 59.7657 72.7747C61.9427 72.2917 64.062 71.5545 65.9689 70.5329C67.8566 69.5216 69.6789 68.1536 71.0765 66.3461C72.5065 64.4966 73.5 62.1567 73.5 59.5C73.5 56.8433 72.5065 54.5034 71.0765 52.6539C69.6789 50.8464 67.8566 49.4784 65.9689 48.4671C64.062 47.4455 61.9427 46.7083 59.7657 46.2253C57.5794 45.7401 55.2854 45.5 53 45.5L46.5 45.5L46.5 52L46.5 59.5V67Z" stroke="white" stroke-width="13"/>
<path d="M139.58 85V36H159.74C164.08 36 167.79 36.7 170.87 38.1C173.997 39.5 176.4 41.5067 178.08 44.12C179.76 46.7333 180.6 49.8367 180.6 53.43C180.6 57.0233 179.76 60.1267 178.08 62.74C176.4 65.3533 173.997 67.36 170.87 68.76C167.79 70.16 164.08 70.86 159.74 70.86H144.62L148.68 66.59V85H139.58ZM148.68 67.57L144.62 63.16H159.32C163.333 63.16 166.343 62.32 168.35 60.64C170.403 58.9133 171.43 56.51 171.43 53.43C171.43 50.3033 170.403 47.9 168.35 46.22C166.343 44.54 163.333 43.7 159.32 43.7H144.62L148.68 39.22V67.57ZM210.836 85V77.44L210.346 75.83V62.6C210.346 60.0333 209.576 58.05 208.036 56.65C206.496 55.2033 204.162 54.48 201.036 54.48C198.936 54.48 196.859 54.8067 194.806 55.46C192.799 56.1133 191.096 57.0233 189.696 58.19L186.266 51.82C188.272 50.28 190.652 49.1367 193.406 48.39C196.206 47.5967 199.099 47.2 202.086 47.2C207.499 47.2 211.676 48.5067 214.616 51.12C217.602 53.6867 219.096 57.6767 219.096 63.09V85H210.836ZM199.076 85.49C196.276 85.49 193.826 85.0233 191.726 84.09C189.626 83.11 187.992 81.78 186.826 80.1C185.706 78.3733 185.146 76.4367 185.146 74.29C185.146 72.19 185.636 70.3 186.616 68.62C187.642 66.94 189.299 65.61 191.586 64.63C193.872 63.65 196.906 63.16 200.686 63.16H211.536V68.97H201.316C198.329 68.97 196.322 69.46 195.296 70.44C194.269 71.3733 193.756 72.54 193.756 73.94C193.756 75.5267 194.386 76.7867 195.646 77.72C196.906 78.6533 198.656 79.12 200.896 79.12C203.042 79.12 204.956 78.63 206.636 77.65C208.362 76.67 209.599 75.2233 210.346 73.31L211.816 78.56C210.976 80.7533 209.459 82.4567 207.266 83.67C205.119 84.8833 202.389 85.49 199.076 85.49ZM229.625 85V47.62H237.955V57.91L236.975 54.9C238.095 52.38 239.845 50.4667 242.225 49.16C244.652 47.8533 247.662 47.2 251.255 47.2V55.53C250.882 55.4367 250.532 55.39 250.205 55.39C249.878 55.3433 249.552 55.32 249.225 55.32C245.912 55.32 243.275 56.3 241.315 58.26C239.355 60.1733 238.375 63.0433 238.375 66.87V85H229.625ZM274.786 85.49C270.866 85.49 267.366 84.6733 264.286 83.04C261.253 81.36 258.873 79.0733 257.146 76.18C255.419 73.2867 254.556 69.9967 254.556 66.31C254.556 62.5767 255.419 59.2867 257.146 56.44C258.873 53.5467 261.253 51.2833 264.286 49.65C267.366 48.0167 270.866 47.2 274.786 47.2C278.426 47.2 281.623 47.9467 284.376 49.44C287.176 50.8867 289.299 53.0333 290.746 55.88L284.026 59.8C282.906 58.0267 281.529 56.72 279.896 55.88C278.309 55.04 276.583 54.62 274.716 54.62C272.569 54.62 270.633 55.0867 268.906 56.02C267.179 56.9533 265.826 58.3067 264.846 60.08C263.866 61.8067 263.376 63.8833 263.376 66.31C263.376 68.7367 263.866 70.8367 264.846 72.61C265.826 74.3367 267.179 75.6667 268.906 76.6C270.633 77.5333 272.569 78 274.716 78C276.583 78 278.309 77.58 279.896 76.74C281.529 75.9 282.906 74.5933 284.026 72.82L290.746 76.74C289.299 79.54 287.176 81.71 284.376 83.25C281.623 84.7433 278.426 85.49 274.786 85.49ZM313.863 85.49C310.036 85.49 306.63 84.6733 303.643 83.04C300.656 81.36 298.3 79.0733 296.573 76.18C294.846 73.2867 293.983 69.9967 293.983 66.31C293.983 62.5767 294.846 59.2867 296.573 56.44C298.3 53.5467 300.656 51.2833 303.643 49.65C306.63 48.0167 310.036 47.2 313.863 47.2C317.736 47.2 321.166 48.0167 324.153 49.65C327.186 51.2833 329.543 53.5233 331.223 56.37C332.95 59.2167 333.813 62.53 333.813 66.31C333.813 69.9967 332.95 73.2867 331.223 76.18C329.543 79.0733 327.186 81.36 324.153 83.04C321.166 84.6733 317.736 85.49 313.863 85.49ZM313.863 78C316.01 78 317.923 77.5333 319.603 76.6C321.283 75.6667 322.59 74.3133 323.523 72.54C324.503 70.7667 324.993 68.69 324.993 66.31C324.993 63.8833 324.503 61.8067 323.523 60.08C322.59 58.3067 321.283 56.9533 319.603 56.02C317.923 55.0867 316.033 54.62 313.933 54.62C311.786 54.62 309.873 55.0867 308.193 56.02C306.56 56.9533 305.253 58.3067 304.273 60.08C303.293 61.8067 302.803 63.8833 302.803 66.31C302.803 68.69 303.293 70.7667 304.273 72.54C305.253 74.3133 306.56 75.6667 308.193 76.6C309.873 77.5333 311.763 78 313.863 78ZM357.3 85.49C354.127 85.49 351.327 84.9067 348.9 83.74C346.474 82.5267 344.584 80.7067 343.23 78.28C341.877 75.8067 341.2 72.7033 341.2 68.97V47.62H349.95V67.78C349.95 71.14 350.697 73.66 352.19 75.34C353.73 76.9733 355.9 77.79 358.7 77.79C360.754 77.79 362.527 77.37 364.02 76.53C365.56 75.69 366.75 74.43 367.59 72.75C368.477 71.07 368.92 68.9933 368.92 66.52V47.62H377.67V85H369.34V74.92L370.81 78C369.55 80.4267 367.707 82.2933 365.28 83.6C362.854 84.86 360.194 85.49 357.3 85.49ZM388.427 85V47.62H396.757V57.91L395.777 54.9C396.897 52.38 398.647 50.4667 401.027 49.16C403.453 47.8533 406.463 47.2 410.057 47.2V55.53C409.683 55.4367 409.333 55.39 409.007 55.39C408.68 55.3433 408.353 55.32 408.027 55.32C404.713 55.32 402.077 56.3 400.117 58.26C398.157 60.1733 397.177 63.0433 397.177 66.87V85H388.427ZM428.671 85.49C425.545 85.49 422.535 85.0933 419.641 84.3C416.795 83.46 414.531 82.4567 412.851 81.29L416.211 74.64C417.891 75.7133 419.898 76.6 422.231 77.3C424.565 78 426.898 78.35 429.231 78.35C431.985 78.35 433.968 77.9767 435.181 77.23C436.441 76.4833 437.071 75.48 437.071 74.22C437.071 73.1933 436.651 72.4233 435.811 71.91C434.971 71.35 433.875 70.93 432.521 70.65C431.168 70.37 429.651 70.1133 427.971 69.88C426.338 69.6467 424.681 69.3433 423.001 68.97C421.368 68.55 419.875 67.9667 418.521 67.22C417.168 66.4267 416.071 65.3767 415.231 64.07C414.391 62.7633 413.971 61.0367 413.971 58.89C413.971 56.51 414.648 54.4567 416.001 52.73C417.355 50.9567 419.245 49.6033 421.671 48.67C424.145 47.69 427.061 47.2 430.421 47.2C432.941 47.2 435.485 47.48 438.051 48.04C440.618 48.6 442.741 49.3933 444.421 50.42L441.061 57.07C439.288 55.9967 437.491 55.2733 435.671 54.9C433.898 54.48 432.125 54.27 430.351 54.27C427.691 54.27 425.708 54.6667 424.401 55.46C423.141 56.2533 422.511 57.2567 422.511 58.47C422.511 59.59 422.931 60.43 423.771 60.99C424.611 61.55 425.708 61.9933 427.061 62.32C428.415 62.6467 429.908 62.9267 431.541 63.16C433.221 63.3467 434.878 63.65 436.511 64.07C438.145 64.49 439.638 65.0733 440.991 65.82C442.391 66.52 443.511 67.5233 444.351 68.83C445.191 70.1367 445.611 71.84 445.611 73.94C445.611 76.2733 444.911 78.3033 443.511 80.03C442.158 81.7567 440.221 83.11 437.701 84.09C435.181 85.0233 432.171 85.49 428.671 85.49ZM461.617 58.54H486.047V66.24H461.617V58.54ZM462.387 85H453.287V36H489.057V43.63H462.387V85ZM518.116 85V77.44L517.626 75.83V62.6C517.626 60.0333 516.856 58.05 515.316 56.65C513.776 55.2033 511.443 54.48 508.316 54.48C506.216 54.48 504.14 54.8067 502.086 55.46C500.08 56.1133 498.376 57.0233 496.976 58.19L493.546 51.82C495.553 50.28 497.933 49.1367 500.686 48.39C503.486 47.5967 506.38 47.2 509.366 47.2C514.78 47.2 518.956 48.5067 521.896 51.12C524.883 53.6867 526.376 57.6767 526.376 63.09V85H518.116ZM506.356 85.49C503.556 85.49 501.106 85.0233 499.006 84.09C496.906 83.11 495.273 81.78 494.106 80.1C492.986 78.3733 492.426 76.4367 492.426 74.29C492.426 72.19 492.916 70.3 493.896 68.62C494.923 66.94 496.58 65.61 498.866 64.63C501.153 63.65 504.186 63.16 507.966 63.16H518.816V68.97H508.596C505.61 68.97 503.603 69.46 502.576 70.44C501.55 71.3733 501.036 72.54 501.036 73.94C501.036 75.5267 501.666 76.7867 502.926 77.72C504.186 78.6533 505.936 79.12 508.176 79.12C510.323 79.12 512.236 78.63 513.916 77.65C515.643 76.67 516.88 75.2233 517.626 73.31L519.096 78.56C518.256 80.7533 516.74 82.4567 514.546 83.67C512.4 84.8833 509.67 85.49 506.356 85.49ZM554.124 85.49C550.204 85.49 546.704 84.6733 543.624 83.04C540.591 81.36 538.211 79.0733 536.484 76.18C534.758 73.2867 533.894 69.9967 533.894 66.31C533.894 62.5767 534.758 59.2867 536.484 56.44C538.211 53.5467 540.591 51.2833 543.624 49.65C546.704 48.0167 550.204 47.2 554.124 47.2C557.764 47.2 560.961 47.9467 563.714 49.44C566.514 50.8867 568.638 53.0333 570.084 55.88L563.364 59.8C562.244 58.0267 560.868 56.72 559.234 55.88C557.648 55.04 555.921 54.62 554.054 54.62C551.908 54.62 549.971 55.0867 548.244 56.02C546.518 56.9533 545.164 58.3067 544.184 60.08C543.204 61.8067 542.714 63.8833 542.714 66.31C542.714 68.7367 543.204 70.8367 544.184 72.61C545.164 74.3367 546.518 75.6667 548.244 76.6C549.971 77.5333 551.908 78 554.054 78C555.921 78 557.648 77.58 559.234 76.74C560.868 75.9 562.244 74.5933 563.364 72.82L570.084 76.74C568.638 79.54 566.514 81.71 563.714 83.25C560.961 84.7433 557.764 85.49 554.124 85.49ZM576.606 85V47.62H585.356V85H576.606ZM581.016 41.46C579.383 41.46 578.03 40.9467 576.956 39.92C575.93 38.8933 575.416 37.6567 575.416 36.21C575.416 34.7167 575.93 33.48 576.956 32.5C578.03 31.4733 579.383 30.96 581.016 30.96C582.65 30.96 583.98 31.45 585.006 32.43C586.08 33.3633 586.616 34.5533 586.616 36C586.616 37.54 586.103 38.8467 585.076 39.92C584.05 40.9467 582.696 41.46 581.016 41.46ZM596.141 85V33.06H604.891V85H596.141ZM633.245 85.49C629.092 85.49 625.452 84.6733 622.325 83.04C619.245 81.36 616.842 79.0733 615.115 76.18C613.435 73.2867 612.595 69.9967 612.595 66.31C612.595 62.5767 613.412 59.2867 615.045 56.44C616.725 53.5467 619.012 51.2833 621.905 49.65C624.845 48.0167 628.182 47.2 631.915 47.2C635.555 47.2 638.798 47.9933 641.645 49.58C644.492 51.1667 646.732 53.4067 648.365 56.3C649.998 59.1933 650.815 62.6 650.815 66.52C650.815 66.8933 650.792 67.3133 650.745 67.78C650.745 68.2467 650.722 68.69 650.675 69.11H619.525V63.3H646.055L642.625 65.12C642.672 62.9733 642.228 61.0833 641.295 59.45C640.362 57.8167 639.078 56.5333 637.445 55.6C635.858 54.6667 634.015 54.2 631.915 54.2C629.768 54.2 627.878 54.6667 626.245 55.6C624.658 56.5333 623.398 57.84 622.465 59.52C621.578 61.1533 621.135 63.09 621.135 65.33V66.73C621.135 68.97 621.648 70.9533 622.675 72.68C623.702 74.4067 625.148 75.7367 627.015 76.67C628.882 77.6033 631.028 78.07 633.455 78.07C635.555 78.07 637.445 77.7433 639.125 77.09C640.805 76.4367 642.298 75.41 643.605 74.01L648.295 79.4C646.615 81.36 644.492 82.8767 641.925 83.95C639.405 84.9767 636.512 85.49 633.245 85.49Z" fill="black"/>
<defs>
<linearGradient id="paint0_linear_2_3" x1="0" y1="0" x2="0" y2="120" gradientUnits="userSpaceOnUse">
<stop stop-color="#9FACFF"/>
<stop offset="0.333333" stop-color="#7486FF"/>
<stop offset="1" stop-color="#415AFF"/>
</linearGradient>
</defs>
</svg>
